# xmcd CD database file
#
# Track frame offsets:
#	150
#	14822
#	31170
#	46212
#	62098
#	84334
#	97043
#	125963
#	147561
#	172645
#	190581
#	214176
#	235958
#	255572
#
# Disc length: 3667 seconds
#
# Revision: 0
# Processed by: cddbd v1.5.2PL0 Copyright (c) Steve Scherf et al.
# Submitted via: CDex 1.79
#
DISCID=c20e510e
DTITLE=Various Artist - moreorless Jazz two
DYEAR=2005
DGENRE=Jazz
TTITLE0=Let there be love - Silje Nergaard
TTITLE1=The color of you - Lisa Ekdahl
TTITLE2=These are the days - Jamie Cullum
TTITLE3=The very thought of you - Steve Tyrell
TTITLE4=What are you doing the rest of your life - Rick Braun
TTITLE5=That old feeling - Ella Fitzgerald and Joe Pass
TTITLE6=Flor de lis - Gretchen Parlato
TTITLE7=Samba Triste - Stan Getz and Charlie Byrd
TTITLE8=La belle dame sans regrets - Chris Botti feat. Sting
TTITLE9=All I need - [re:jazz]
TTITLE10=Twisted Cupid - Slow train Soul
TTITLE11=Tell me all about it - Gordon Haskell
TTITLE12=Comes Love - Michael Kaeshammer
TTITLE13=My funny valentine - Jacqui Naylor
EXTD=YEAR: 2005
EXTT0=
EXTT1=
EXTT2=
EXTT3=
EXTT4=
EXTT5=
EXTT6=
EXTT7=
EXTT8=
EXTT9=
EXTT10=
EXTT11=
EXTT12=
EXTT13=
PLAYORDER=
